<mxfile host="Electron" modified="2024-06-29T14:19:38.864Z" agent="Mozilla/5.0 (Windows NT 10.0; Win64; x64) AppleWebKit/537.36 (KHTML, like Gecko) draw.io/21.2.1 Chrome/112.0.5615.87 Electron/24.1.2 Safari/537.36" etag="2wjaFgm2VU7WpSwByevs" version="21.2.1" type="device">
  <diagram name="Page-1" id="2a216829-ef6e-dabb-86c1-c78162f3ba2b">
    <mxGraphModel dx="1300" dy="1940" grid="1" gridSize="10" guides="1" tooltips="1" connect="1" arrows="1" fold="1" page="1" pageScale="1" pageWidth="850" pageHeight="1100" background="none" math="0" shadow="0">
      <root>
        <mxCell id="0" />
        <mxCell id="1" parent="0" />
        <mxCell id="aszF3JY3qbA2NUiWQpWk-9" style="edgeStyle=orthogonalEdgeStyle;rounded=0;orthogonalLoop=1;jettySize=auto;html=1;exitX=1;exitY=0.5;exitDx=0;exitDy=0;exitPerimeter=0;entryX=0;entryY=0.5;entryDx=0;entryDy=0;entryPerimeter=0;" edge="1" parent="1" source="aszF3JY3qbA2NUiWQpWk-1" target="aszF3JY3qbA2NUiWQpWk-3">
          <mxGeometry relative="1" as="geometry" />
        </mxCell>
        <mxCell id="aszF3JY3qbA2NUiWQpWk-1" value="Начало" style="points=[[0.145,0.145,0],[0.5,0,0],[0.855,0.145,0],[1,0.5,0],[0.855,0.855,0],[0.5,1,0],[0.145,0.855,0],[0,0.5,0]];shape=mxgraph.bpmn.event;html=1;verticalLabelPosition=bottom;labelBackgroundColor=#ffffff;verticalAlign=top;align=center;perimeter=ellipsePerimeter;outlineConnect=0;aspect=fixed;outline=standard;symbol=general;" vertex="1" parent="1">
          <mxGeometry x="30" y="300" width="50" height="50" as="geometry" />
        </mxCell>
        <mxCell id="aszF3JY3qbA2NUiWQpWk-10" value="Нет" style="edgeStyle=orthogonalEdgeStyle;rounded=0;orthogonalLoop=1;jettySize=auto;html=1;exitX=0.5;exitY=0;exitDx=0;exitDy=0;exitPerimeter=0;entryX=0.5;entryY=1;entryDx=0;entryDy=0;" edge="1" parent="1" source="aszF3JY3qbA2NUiWQpWk-3" target="aszF3JY3qbA2NUiWQpWk-8">
          <mxGeometry relative="1" as="geometry" />
        </mxCell>
        <mxCell id="aszF3JY3qbA2NUiWQpWk-3" value="Пользователь авторизован?" style="points=[[0.25,0.25,0],[0.5,0,0],[0.75,0.25,0],[1,0.5,0],[0.75,0.75,0],[0.5,1,0],[0.25,0.75,0],[0,0.5,0]];shape=mxgraph.bpmn.gateway2;html=1;verticalLabelPosition=bottom;labelBackgroundColor=#ffffff;verticalAlign=top;align=center;perimeter=rhombusPerimeter;outlineConnect=0;outline=none;symbol=none;" vertex="1" parent="1">
          <mxGeometry x="190" y="300" width="50" height="50" as="geometry" />
        </mxCell>
        <mxCell id="aszF3JY3qbA2NUiWQpWk-4" value="" style="rounded=0;whiteSpace=wrap;html=1;fillColor=#dae8fc;strokeColor=#6c8ebf;" vertex="1" parent="1">
          <mxGeometry y="-345" width="50" height="20" as="geometry" />
        </mxCell>
        <mxCell id="aszF3JY3qbA2NUiWQpWk-5" value="Система" style="text;html=1;align=center;verticalAlign=middle;resizable=0;points=[];autosize=1;strokeColor=none;fillColor=none;" vertex="1" parent="1">
          <mxGeometry x="45" y="-350" width="70" height="30" as="geometry" />
        </mxCell>
        <mxCell id="aszF3JY3qbA2NUiWQpWk-6" value="" style="rounded=0;whiteSpace=wrap;html=1;fillColor=#d5e8d4;strokeColor=#82b366;" vertex="1" parent="1">
          <mxGeometry y="-315" width="50" height="20" as="geometry" />
        </mxCell>
        <mxCell id="aszF3JY3qbA2NUiWQpWk-7" value="Пользователь" style="text;html=1;align=center;verticalAlign=middle;resizable=0;points=[];autosize=1;strokeColor=none;fillColor=none;" vertex="1" parent="1">
          <mxGeometry x="45" y="-320" width="100" height="30" as="geometry" />
        </mxCell>
        <mxCell id="aszF3JY3qbA2NUiWQpWk-12" style="edgeStyle=orthogonalEdgeStyle;rounded=0;orthogonalLoop=1;jettySize=auto;html=1;exitX=1;exitY=0.5;exitDx=0;exitDy=0;entryX=0;entryY=0.5;entryDx=0;entryDy=0;entryPerimeter=0;" edge="1" parent="1" source="aszF3JY3qbA2NUiWQpWk-8" target="aszF3JY3qbA2NUiWQpWk-11">
          <mxGeometry relative="1" as="geometry" />
        </mxCell>
        <mxCell id="aszF3JY3qbA2NUiWQpWk-8" value="Выбор действия&lt;br&gt;(авторизация/регистрация)" style="rounded=0;whiteSpace=wrap;html=1;fillColor=#d5e8d4;strokeColor=#82b366;" vertex="1" parent="1">
          <mxGeometry x="155" y="-10" width="120" height="60" as="geometry" />
        </mxCell>
        <mxCell id="aszF3JY3qbA2NUiWQpWk-14" style="edgeStyle=orthogonalEdgeStyle;rounded=0;orthogonalLoop=1;jettySize=auto;html=1;exitX=0.5;exitY=0;exitDx=0;exitDy=0;exitPerimeter=0;entryX=0.5;entryY=1;entryDx=0;entryDy=0;" edge="1" parent="1" source="aszF3JY3qbA2NUiWQpWk-11" target="aszF3JY3qbA2NUiWQpWk-13">
          <mxGeometry relative="1" as="geometry" />
        </mxCell>
        <mxCell id="aszF3JY3qbA2NUiWQpWk-16" style="edgeStyle=orthogonalEdgeStyle;rounded=0;orthogonalLoop=1;jettySize=auto;html=1;exitX=0.5;exitY=1;exitDx=0;exitDy=0;exitPerimeter=0;" edge="1" parent="1" source="aszF3JY3qbA2NUiWQpWk-11" target="aszF3JY3qbA2NUiWQpWk-15">
          <mxGeometry relative="1" as="geometry" />
        </mxCell>
        <mxCell id="aszF3JY3qbA2NUiWQpWk-17" style="edgeStyle=orthogonalEdgeStyle;rounded=0;orthogonalLoop=1;jettySize=auto;html=1;exitX=1;exitY=0.5;exitDx=0;exitDy=0;exitPerimeter=0;entryX=0.5;entryY=0;entryDx=0;entryDy=0;entryPerimeter=0;" edge="1" parent="1" source="aszF3JY3qbA2NUiWQpWk-11" target="aszF3JY3qbA2NUiWQpWk-1">
          <mxGeometry relative="1" as="geometry">
            <Array as="points">
              <mxPoint x="1370" y="20" />
              <mxPoint x="1370" y="-260" />
              <mxPoint x="55" y="-260" />
            </Array>
          </mxGeometry>
        </mxCell>
        <mxCell id="aszF3JY3qbA2NUiWQpWk-11" value="" style="points=[[0.25,0.25,0],[0.5,0,0],[0.75,0.25,0],[1,0.5,0],[0.75,0.75,0],[0.5,1,0],[0.25,0.75,0],[0,0.5,0]];shape=mxgraph.bpmn.gateway2;html=1;verticalLabelPosition=bottom;labelBackgroundColor=#ffffff;verticalAlign=top;align=center;perimeter=rhombusPerimeter;outlineConnect=0;outline=none;symbol=none;gwType=exclusive;" vertex="1" parent="1">
          <mxGeometry x="350" y="-5" width="50" height="50" as="geometry" />
        </mxCell>
        <mxCell id="aszF3JY3qbA2NUiWQpWk-26" style="edgeStyle=orthogonalEdgeStyle;rounded=0;orthogonalLoop=1;jettySize=auto;html=1;exitX=0;exitY=0.75;exitDx=0;exitDy=0;entryX=0.75;entryY=0;entryDx=0;entryDy=0;" edge="1" parent="1" source="aszF3JY3qbA2NUiWQpWk-13" target="aszF3JY3qbA2NUiWQpWk-8">
          <mxGeometry relative="1" as="geometry" />
        </mxCell>
        <mxCell id="aszF3JY3qbA2NUiWQpWk-28" style="edgeStyle=orthogonalEdgeStyle;rounded=0;orthogonalLoop=1;jettySize=auto;html=1;exitX=1;exitY=0.5;exitDx=0;exitDy=0;entryX=0;entryY=0.5;entryDx=0;entryDy=0;" edge="1" parent="1" source="aszF3JY3qbA2NUiWQpWk-13" target="aszF3JY3qbA2NUiWQpWk-27">
          <mxGeometry relative="1" as="geometry" />
        </mxCell>
        <mxCell id="aszF3JY3qbA2NUiWQpWk-13" value="Регистрация" style="rounded=0;whiteSpace=wrap;html=1;fillColor=#d5e8d4;strokeColor=#82b366;" vertex="1" parent="1">
          <mxGeometry x="315" y="-120" width="120" height="60" as="geometry" />
        </mxCell>
        <mxCell id="aszF3JY3qbA2NUiWQpWk-19" value="Отправка&lt;br&gt;данных" style="edgeStyle=orthogonalEdgeStyle;rounded=0;orthogonalLoop=1;jettySize=auto;html=1;exitX=1;exitY=0.5;exitDx=0;exitDy=0;entryX=0;entryY=0.5;entryDx=0;entryDy=0;" edge="1" parent="1" source="aszF3JY3qbA2NUiWQpWk-15" target="aszF3JY3qbA2NUiWQpWk-18">
          <mxGeometry relative="1" as="geometry" />
        </mxCell>
        <mxCell id="aszF3JY3qbA2NUiWQpWk-25" style="edgeStyle=orthogonalEdgeStyle;rounded=0;orthogonalLoop=1;jettySize=auto;html=1;exitX=0;exitY=0.5;exitDx=0;exitDy=0;entryX=0.75;entryY=1;entryDx=0;entryDy=0;" edge="1" parent="1" source="aszF3JY3qbA2NUiWQpWk-15" target="aszF3JY3qbA2NUiWQpWk-8">
          <mxGeometry relative="1" as="geometry" />
        </mxCell>
        <mxCell id="aszF3JY3qbA2NUiWQpWk-15" value="Авторизация" style="rounded=0;whiteSpace=wrap;html=1;fillColor=#d5e8d4;strokeColor=#82b366;" vertex="1" parent="1">
          <mxGeometry x="315" y="100" width="120" height="60" as="geometry" />
        </mxCell>
        <mxCell id="aszF3JY3qbA2NUiWQpWk-21" style="edgeStyle=orthogonalEdgeStyle;rounded=0;orthogonalLoop=1;jettySize=auto;html=1;exitX=1;exitY=0.5;exitDx=0;exitDy=0;entryX=0;entryY=0.5;entryDx=0;entryDy=0;entryPerimeter=0;" edge="1" parent="1" source="aszF3JY3qbA2NUiWQpWk-18" target="aszF3JY3qbA2NUiWQpWk-20">
          <mxGeometry relative="1" as="geometry" />
        </mxCell>
        <mxCell id="aszF3JY3qbA2NUiWQpWk-18" value="Проверка корректности данных" style="rounded=0;whiteSpace=wrap;html=1;fillColor=#f8cecc;strokeColor=#b85450;" vertex="1" parent="1">
          <mxGeometry x="520" y="100" width="120" height="60" as="geometry" />
        </mxCell>
        <mxCell id="aszF3JY3qbA2NUiWQpWk-22" value="Нет" style="edgeStyle=orthogonalEdgeStyle;rounded=0;orthogonalLoop=1;jettySize=auto;html=1;exitX=0.5;exitY=0;exitDx=0;exitDy=0;exitPerimeter=0;entryX=0.75;entryY=0;entryDx=0;entryDy=0;" edge="1" parent="1" source="aszF3JY3qbA2NUiWQpWk-20" target="aszF3JY3qbA2NUiWQpWk-15">
          <mxGeometry relative="1" as="geometry">
            <Array as="points">
              <mxPoint x="745" y="70" />
              <mxPoint x="405" y="70" />
            </Array>
          </mxGeometry>
        </mxCell>
        <mxCell id="aszF3JY3qbA2NUiWQpWk-24" value="Да" style="edgeStyle=orthogonalEdgeStyle;rounded=0;orthogonalLoop=1;jettySize=auto;html=1;exitX=1;exitY=0.5;exitDx=0;exitDy=0;exitPerimeter=0;entryX=0;entryY=0.5;entryDx=0;entryDy=0;" edge="1" parent="1" source="aszF3JY3qbA2NUiWQpWk-20" target="aszF3JY3qbA2NUiWQpWk-23">
          <mxGeometry relative="1" as="geometry" />
        </mxCell>
        <mxCell id="aszF3JY3qbA2NUiWQpWk-20" value="Данные корректны?" style="points=[[0.25,0.25,0],[0.5,0,0],[0.75,0.25,0],[1,0.5,0],[0.75,0.75,0],[0.5,1,0],[0.25,0.75,0],[0,0.5,0]];shape=mxgraph.bpmn.gateway2;html=1;verticalLabelPosition=bottom;labelBackgroundColor=#ffffff;verticalAlign=top;align=center;perimeter=rhombusPerimeter;outlineConnect=0;outline=none;symbol=none;" vertex="1" parent="1">
          <mxGeometry x="720" y="105" width="50" height="50" as="geometry" />
        </mxCell>
        <mxCell id="aszF3JY3qbA2NUiWQpWk-23" value="Создание токена" style="rounded=0;whiteSpace=wrap;html=1;fillColor=#f8cecc;strokeColor=#b85450;" vertex="1" parent="1">
          <mxGeometry x="850" y="100" width="120" height="60" as="geometry" />
        </mxCell>
        <mxCell id="aszF3JY3qbA2NUiWQpWk-30" value="Результат" style="edgeStyle=orthogonalEdgeStyle;rounded=0;orthogonalLoop=1;jettySize=auto;html=1;exitX=1;exitY=0.5;exitDx=0;exitDy=0;entryX=0;entryY=0.5;entryDx=0;entryDy=0;entryPerimeter=0;" edge="1" parent="1" source="aszF3JY3qbA2NUiWQpWk-27" target="aszF3JY3qbA2NUiWQpWk-29">
          <mxGeometry relative="1" as="geometry" />
        </mxCell>
        <mxCell id="aszF3JY3qbA2NUiWQpWk-27" value="Проверка наличия пользователя" style="rounded=0;whiteSpace=wrap;html=1;fillColor=#f8cecc;strokeColor=#b85450;" vertex="1" parent="1">
          <mxGeometry x="480" y="-120" width="120" height="60" as="geometry" />
        </mxCell>
        <mxCell id="aszF3JY3qbA2NUiWQpWk-31" value="Да" style="edgeStyle=orthogonalEdgeStyle;rounded=0;orthogonalLoop=1;jettySize=auto;html=1;exitX=0.5;exitY=0;exitDx=0;exitDy=0;exitPerimeter=0;entryX=0.5;entryY=0;entryDx=0;entryDy=0;" edge="1" parent="1" source="aszF3JY3qbA2NUiWQpWk-29" target="aszF3JY3qbA2NUiWQpWk-13">
          <mxGeometry relative="1" as="geometry">
            <Array as="points">
              <mxPoint x="695" y="-160" />
              <mxPoint x="375" y="-160" />
            </Array>
          </mxGeometry>
        </mxCell>
        <mxCell id="aszF3JY3qbA2NUiWQpWk-34" value="Код&amp;nbsp;&lt;br&gt;подтверждения" style="edgeStyle=orthogonalEdgeStyle;rounded=0;orthogonalLoop=1;jettySize=auto;html=1;exitX=1;exitY=0.5;exitDx=0;exitDy=0;exitPerimeter=0;entryX=0;entryY=0.5;entryDx=0;entryDy=0;entryPerimeter=0;" edge="1" parent="1" source="aszF3JY3qbA2NUiWQpWk-29" target="aszF3JY3qbA2NUiWQpWk-33">
          <mxGeometry relative="1" as="geometry" />
        </mxCell>
        <mxCell id="aszF3JY3qbA2NUiWQpWk-29" value="Пользователь существует?" style="points=[[0.25,0.25,0],[0.5,0,0],[0.75,0.25,0],[1,0.5,0],[0.75,0.75,0],[0.5,1,0],[0.25,0.75,0],[0,0.5,0]];shape=mxgraph.bpmn.gateway2;html=1;verticalLabelPosition=bottom;labelBackgroundColor=#ffffff;verticalAlign=top;align=center;perimeter=rhombusPerimeter;outlineConnect=0;outline=none;symbol=none;" vertex="1" parent="1">
          <mxGeometry x="670" y="-115" width="50" height="50" as="geometry" />
        </mxCell>
        <mxCell id="aszF3JY3qbA2NUiWQpWk-36" style="edgeStyle=orthogonalEdgeStyle;rounded=0;orthogonalLoop=1;jettySize=auto;html=1;exitX=1;exitY=0.5;exitDx=0;exitDy=0;exitPerimeter=0;entryX=0;entryY=0.5;entryDx=0;entryDy=0;" edge="1" parent="1" source="aszF3JY3qbA2NUiWQpWk-33" target="aszF3JY3qbA2NUiWQpWk-35">
          <mxGeometry relative="1" as="geometry" />
        </mxCell>
        <mxCell id="aszF3JY3qbA2NUiWQpWk-33" value="" style="points=[[0.25,0.25,0],[0.5,0,0],[0.75,0.25,0],[1,0.5,0],[0.75,0.75,0],[0.5,1,0],[0.25,0.75,0],[0,0.5,0]];shape=mxgraph.bpmn.gateway2;html=1;verticalLabelPosition=bottom;labelBackgroundColor=#ffffff;verticalAlign=top;align=center;perimeter=rhombusPerimeter;outlineConnect=0;outline=standard;symbol=message;" vertex="1" parent="1">
          <mxGeometry x="840" y="-110" width="50" height="50" as="geometry" />
        </mxCell>
        <mxCell id="aszF3JY3qbA2NUiWQpWk-38" style="edgeStyle=orthogonalEdgeStyle;rounded=0;orthogonalLoop=1;jettySize=auto;html=1;exitX=1;exitY=0.5;exitDx=0;exitDy=0;entryX=0;entryY=0.5;entryDx=0;entryDy=0;entryPerimeter=0;" edge="1" parent="1" source="aszF3JY3qbA2NUiWQpWk-35" target="aszF3JY3qbA2NUiWQpWk-37">
          <mxGeometry relative="1" as="geometry" />
        </mxCell>
        <mxCell id="aszF3JY3qbA2NUiWQpWk-35" value="Ввод кода подтверждения" style="rounded=0;whiteSpace=wrap;html=1;fillColor=#d5e8d4;strokeColor=#82b366;" vertex="1" parent="1">
          <mxGeometry x="940" y="-115" width="120" height="60" as="geometry" />
        </mxCell>
        <mxCell id="aszF3JY3qbA2NUiWQpWk-39" value="Нет" style="edgeStyle=orthogonalEdgeStyle;rounded=0;orthogonalLoop=1;jettySize=auto;html=1;exitX=0.5;exitY=0;exitDx=0;exitDy=0;exitPerimeter=0;entryX=0.5;entryY=0;entryDx=0;entryDy=0;" edge="1" parent="1" source="aszF3JY3qbA2NUiWQpWk-37" target="aszF3JY3qbA2NUiWQpWk-35">
          <mxGeometry relative="1" as="geometry">
            <Array as="points">
              <mxPoint x="1135" y="-150" />
              <mxPoint x="1000" y="-150" />
            </Array>
          </mxGeometry>
        </mxCell>
        <mxCell id="aszF3JY3qbA2NUiWQpWk-41" value="Да" style="edgeStyle=orthogonalEdgeStyle;rounded=0;orthogonalLoop=1;jettySize=auto;html=1;exitX=1;exitY=0.5;exitDx=0;exitDy=0;exitPerimeter=0;entryX=0;entryY=0.5;entryDx=0;entryDy=0;" edge="1" parent="1" source="aszF3JY3qbA2NUiWQpWk-37" target="aszF3JY3qbA2NUiWQpWk-40">
          <mxGeometry relative="1" as="geometry" />
        </mxCell>
        <mxCell id="aszF3JY3qbA2NUiWQpWk-37" value="Код верный?" style="points=[[0.25,0.25,0],[0.5,0,0],[0.75,0.25,0],[1,0.5,0],[0.75,0.75,0],[0.5,1,0],[0.25,0.75,0],[0,0.5,0]];shape=mxgraph.bpmn.gateway2;html=1;verticalLabelPosition=bottom;labelBackgroundColor=#ffffff;verticalAlign=top;align=center;perimeter=rhombusPerimeter;outlineConnect=0;outline=none;symbol=none;" vertex="1" parent="1">
          <mxGeometry x="1110" y="-110" width="50" height="50" as="geometry" />
        </mxCell>
        <mxCell id="aszF3JY3qbA2NUiWQpWk-42" style="edgeStyle=orthogonalEdgeStyle;rounded=0;orthogonalLoop=1;jettySize=auto;html=1;exitX=0.5;exitY=1;exitDx=0;exitDy=0;entryX=0.5;entryY=0;entryDx=0;entryDy=0;" edge="1" parent="1" source="aszF3JY3qbA2NUiWQpWk-40" target="aszF3JY3qbA2NUiWQpWk-23">
          <mxGeometry relative="1" as="geometry">
            <Array as="points">
              <mxPoint x="1260" y="50" />
              <mxPoint x="910" y="50" />
            </Array>
          </mxGeometry>
        </mxCell>
        <mxCell id="aszF3JY3qbA2NUiWQpWk-40" value="Активация пользователя" style="rounded=0;whiteSpace=wrap;html=1;fillColor=#f8cecc;strokeColor=#b85450;" vertex="1" parent="1">
          <mxGeometry x="1200" y="-115" width="120" height="60" as="geometry" />
        </mxCell>
      </root>
    </mxGraphModel>
  </diagram>
</mxfile>
